HIERARCHY
ROOT mixamorig:Hips
{
	OFFSET 0.000000 201.639420 0.000000
	CHANNELS 6 Xposition Yposition Zposition Xrotation Yrotation Zrotation
	JOINT mixamorig:Spine
	{
		OFFSET 0.006200 19.524994 -2.481800
		CHANNELS 3 Xrotation Yrotation Zrotation
		JOINT mixamorig:Spine1
		{
			OFFSET -0.000900 22.835007 -2.825400
			CHANNELS 3 Xrotation Yrotation Zrotation
			JOINT mixamorig:Spine2
			{
				OFFSET -0.020600 26.552490 -3.193300
				CHANNELS 3 Xrotation Yrotation Zrotation
				JOINT mixamorig:Neck
				{
					OFFSET -0.060000 30.701813 1.352200
					CHANNELS 3 Xrotation Yrotation Zrotation
					JOINT mixamorig:Head
					{
						OFFSET -0.087200 22.547607 3.670900
						CHANNELS 3 Xrotation Yrotation Zrotation
						JOINT mixamorig:HeadTop_End
						{
							OFFSET -0.830600 40.355194 7.893500
							CHANNELS 3 Xrotation Yrotation Zrotation
							End Site
							{
								OFFSET 0.000000 30.592346 0.000000
							}
						}
						JOINT mixamorig:RightEye
						{
							OFFSET -6.302100 18.118591 16.197100
							CHANNELS 3 Xrotation Yrotation Zrotation
							End Site
							{
								OFFSET 0.000000 30.592346 0.000000
							}
						}
						JOINT mixamorig:LeftEye
						{
							OFFSET 6.741500 18.382690 16.401899
							CHANNELS 3 Xrotation Yrotation Zrotation
							End Site
							{
								OFFSET 0.000000 30.592346 0.000000
							}
						}
					}
				}
				JOINT mixamorig:LeftShoulder
				{
					OFFSET 11.924900 18.230499 1.425400
					CHANNELS 3 Xrotation Yrotation Zrotation
					JOINT mixamorig:LeftArm
					{
						OFFSET 25.435989 -0.697632 -5.229300
						CHANNELS 3 Xrotation Yrotation Zrotation
						JOINT mixamorig:LeftForeArm
						{
							OFFSET 54.684776 0.000000 0.000000
							CHANNELS 3 Xrotation Yrotation Zrotation
							JOINT mixamorig:LeftHand
							{
								OFFSET 55.098175 0.000000 0.000000
								CHANNELS 3 Xrotation Yrotation Zrotation
								JOINT mixamorig:LeftHandMiddle1
								{
									OFFSET 23.369751 0.000000 0.000000
									CHANNELS 3 Xrotation Yrotation Zrotation
									JOINT mixamorig:LeftHandMiddle2
									{
										OFFSET 6.378677 0.000000 0.000000
										CHANNELS 3 Xrotation Yrotation Zrotation
										JOINT mixamorig:LeftHandMiddle3
										{
											OFFSET 6.148331 0.000000 0.000000
											CHANNELS 3 Xrotation Yrotation Zrotation
											JOINT mixamorig:LeftHandMiddle4
											{
												OFFSET 6.582504 0.000000 0.000000
												CHANNELS 3 Xrotation Yrotation Zrotation
												End Site
												{
													OFFSET -1.168900 6.395691 1.028606
												}
											}
										}
									}
								}
								JOINT mixamorig:LeftHandThumb1
								{
									OFFSET 7.235672 -3.848206 5.434273
									CHANNELS 3 Xrotation Yrotation Zrotation
									JOINT mixamorig:LeftHandThumb2
									{
										OFFSET 6.568451 -3.792297 3.792300
										CHANNELS 3 Xrotation Yrotation Zrotation
										JOINT mixamorig:LeftHandThumb3
										{
											OFFSET 6.063080 -3.500519 3.500518
											CHANNELS 3 Xrotation Yrotation Zrotation
											JOINT mixamorig:LeftHandThumb4
											{
												OFFSET 4.793182 -2.767334 2.767349
												CHANNELS 3 Xrotation Yrotation Zrotation
												End Site
												{
													OFFSET 0.101639 6.054260 1.275483
												}
											}
										}
									}
								}
								JOINT mixamorig:LeftHandIndex1
								{
									OFFSET 23.101074 -0.309540 4.992809
									CHANNELS 3 Xrotation Yrotation Zrotation
									JOINT mixamorig:LeftHandIndex2
									{
										OFFSET 6.226883 0.000000 0.000000
										CHANNELS 3 Xrotation Yrotation Zrotation
										JOINT mixamorig:LeftHandIndex3
										{
											OFFSET 6.094330 0.000000 0.000000
											CHANNELS 3 Xrotation Yrotation Zrotation
											JOINT mixamorig:LeftHandIndex4
											{
												OFFSET 5.482605 0.000000 0.000000
												CHANNELS 3 Xrotation Yrotation Zrotation
												End Site
												{
													OFFSET -1.427902 5.233032 0.797164
												}
											}
										}
									}
								}
								JOINT mixamorig:LeftHandRing1
								{
									OFFSET 22.299240 0.021149 -3.964172
									CHANNELS 3 Xrotation Yrotation Zrotation
									JOINT mixamorig:LeftHandRing2
									{
										OFFSET 6.321869 0.000000 0.000000
										CHANNELS 3 Xrotation Yrotation Zrotation
										JOINT mixamorig:LeftHandRing3
										{
											OFFSET 5.899796 0.000000 0.000000
											CHANNELS 3 Xrotation Yrotation Zrotation
											JOINT mixamorig:LeftHandRing4
											{
												OFFSET 6.517899 0.000000 0.000000
												CHANNELS 3 Xrotation Yrotation Zrotation
												End Site
												{
													OFFSET -1.637299 6.232208 0.980890
												}
											}
										}
									}
								}
								JOINT mixamorig:LeftHandPinky1
								{
									OFFSET 20.463791 -0.302338 -8.562233
									CHANNELS 3 Xrotation Yrotation Zrotation
									JOINT mixamorig:LeftHandPinky2
									{
										OFFSET 6.908646 0.000000 0.000000
										CHANNELS 3 Xrotation Yrotation Zrotation
										JOINT mixamorig:LeftHandPinky3
										{
											OFFSET 4.622849 0.000000 0.000000
											CHANNELS 3 Xrotation Yrotation Zrotation
											JOINT mixamorig:LeftHandPinky4
											{
												OFFSET 5.216080 0.000000 0.000000
												CHANNELS 3 Xrotation Yrotation Zrotation
												End Site
												{
													OFFSET -0.606308 5.116241 0.814926
												}
											}
										}
									}
								}
							}
						}
					}
				}
				JOINT mixamorig:RightShoulder
				{
					OFFSET -12.001300 18.284088 1.348900
					CHANNELS 3 Xrotation Yrotation Zrotation
					JOINT mixamorig:RightArm
					{
						OFFSET -25.308500 -0.751312 -5.164599
						CHANNELS 3 Xrotation Yrotation Zrotation
						JOINT mixamorig:RightForeArm
						{
							OFFSET -54.684429 0.000000 0.000000
							CHANNELS 3 Xrotation Yrotation Zrotation
							JOINT mixamorig:RightHand
							{
								OFFSET -55.150291 0.000000 0.000000
								CHANNELS 3 Xrotation Yrotation Zrotation
								JOINT mixamorig:RightHandMiddle1
								{
									OFFSET -23.317566 0.000000 0.000000
									CHANNELS 3 Xrotation Yrotation Zrotation
									JOINT mixamorig:RightHandMiddle2
									{
										OFFSET -6.378403 0.000000 0.000000
										CHANNELS 3 Xrotation Yrotation Zrotation
										JOINT mixamorig:RightHandMiddle3
										{
											OFFSET -6.148193 0.000000 0.000000
											CHANNELS 3 Xrotation Yrotation Zrotation
											JOINT mixamorig:RightHandMiddle4
											{
												OFFSET -6.583389 0.000000 0.000000
												CHANNELS 3 Xrotation Yrotation Zrotation
												End Site
												{
													OFFSET 1.171692 6.395905 1.029786
												}
											}
										}
									}
								}
								JOINT mixamorig:RightHandThumb1
								{
									OFFSET -7.190521 -3.860474 5.435846
									CHANNELS 3 Xrotation Yrotation Zrotation
									JOINT mixamorig:RightHandThumb2
									{
										OFFSET -6.567429 -3.791718 3.791708
										CHANNELS 3 Xrotation Yrotation Zrotation
										JOINT mixamorig:RightHandThumb3
										{
											OFFSET -6.062469 -3.500153 3.500166
											CHANNELS 3 Xrotation Yrotation Zrotation
											JOINT mixamorig:RightHandThumb4
											{
												OFFSET -4.792618 -2.767029 2.767022
												CHANNELS 3 Xrotation Yrotation Zrotation
												End Site
												{
													OFFSET -0.100327 6.053253 1.276754
												}
											}
										}
									}
								}
								JOINT mixamorig:RightHandIndex1
								{
									OFFSET -23.048981 -0.310791 4.992554
									CHANNELS 3 Xrotation Yrotation Zrotation
									JOINT mixamorig:RightHandIndex2
									{
										OFFSET -6.227539 0.000000 0.000000
										CHANNELS 3 Xrotation Yrotation Zrotation
										JOINT mixamorig:RightHandIndex3
										{
											OFFSET -6.095047 0.000000 0.000000
											CHANNELS 3 Xrotation Yrotation Zrotation
											JOINT mixamorig:RightHandIndex4
											{
												OFFSET -5.484772 0.000000 0.000000
												CHANNELS 3 Xrotation Yrotation Zrotation
												End Site
												{
													OFFSET 1.420593 5.237305 0.797056
												}
											}
										}
									}
								}
								JOINT mixamorig:RightHandRing1
								{
									OFFSET -22.246323 0.020569 -3.963762
									CHANNELS 3 Xrotation Yrotation Zrotation
									JOINT mixamorig:RightHandRing2
									{
										OFFSET -6.322128 0.000000 0.000000
										CHANNELS 3 Xrotation Yrotation Zrotation
										JOINT mixamorig:RightHandRing3
										{
											OFFSET -5.900024 0.000000 0.000000
											CHANNELS 3 Xrotation Yrotation Zrotation
											JOINT mixamorig:RightHandRing4
											{
												OFFSET -6.518356 0.000000 0.000000
												CHANNELS 3 Xrotation Yrotation Zrotation
												End Site
												{
													OFFSET 1.636398 6.232697 0.982186
												}
											}
										}
									}
								}
								JOINT mixamorig:RightHandPinky1
								{
									OFFSET -20.411011 -0.303314 -8.561701
									CHANNELS 3 Xrotation Yrotation Zrotation
									JOINT mixamorig:RightHandPinky2
									{
										OFFSET -6.907349 0.000000 0.000000
										CHANNELS 3 Xrotation Yrotation Zrotation
										JOINT mixamorig:RightHandPinky3
										{
											OFFSET -4.623840 0.000000 0.000000
											CHANNELS 3 Xrotation Yrotation Zrotation
											JOINT mixamorig:RightHandPinky4
											{
												OFFSET -5.218353 0.000000 0.000000
												CHANNELS 3 Xrotation Yrotation Zrotation
												End Site
												{
													OFFSET 0.602097 5.118835 0.816273
												}
											}
										}
									}
								}
							}
						}
					}
				}
			}
		}
	}
	JOINT mixamorig:LeftUpLeg
	{
		OFFSET 18.168400 -13.561905 -0.039000
		CHANNELS 3 Xrotation Yrotation Zrotation
		JOINT mixamorig:LeftLeg
		{
			OFFSET 0.577358 -80.825211 -3.695000
			CHANNELS 3 Xrotation Yrotation Zrotation
			JOINT mixamorig:LeftFoot
			{
				OFFSET -0.577356 -83.370262 -6.520700
				CHANNELS 3 Xrotation Yrotation Zrotation
				JOINT mixamorig:LeftToeBase
				{
					OFFSET 0.750401 -20.798306 25.135401
					CHANNELS 3 Xrotation Yrotation Zrotation
					JOINT mixamorig:LeftToe_End
					{
						OFFSET -0.000500 0.001200 19.917799
						CHANNELS 3 Xrotation Yrotation Zrotation
						End Site
						{
							OFFSET 0.000000 19.917805 0.000000
						}
					}
				}
			}
		}
	}
	JOINT mixamorig:RightUpLeg
	{
		OFFSET -18.162500 -13.585098 -0.041000
		CHANNELS 3 Xrotation Yrotation Zrotation
		JOINT mixamorig:RightLeg
		{
			OFFSET -0.595024 -80.945297 -3.631900
			CHANNELS 3 Xrotation Yrotation Zrotation
			JOINT mixamorig:RightFoot
			{
				OFFSET 0.595024 -83.218193 -6.561200
				CHANNELS 3 Xrotation Yrotation Zrotation
				JOINT mixamorig:RightToeBase
				{
					OFFSET -0.753601 -20.807106 25.115000
					CHANNELS 3 Xrotation Yrotation Zrotation
					JOINT mixamorig:RightToe_End
					{
						OFFSET 0.000299 0.001700 19.918200
						CHANNELS 3 Xrotation Yrotation Zrotation
						End Site
						{
							OFFSET 0.000000 19.918203 0.000000
						}
					}
				}
			}
		}
	}
}
MOTION
Frames: 5
Frame Time: 0.033333
37.553596 192.409058 92.856857 37.415554 -61.869342 24.690567 21.859836 -7.135512 3.399187 9.432440 -3.652570 1.769085 9.441394 -3.558762 1.953242 8.642818 3.075910 -1.618892 2.992282 15.832894 -5.037305 -0.000000 0.000000 -0.000002 -0.000000 0.000000 -0.000002 -0.000000 0.000000 -0.000002 0.415199 -16.171141 -11.217588 -11.282081 -37.203689 -34.266243 0.000003 -38.158156 0.000002 -23.208520 12.088052 16.424858 0.174159 1.740004 -21.162346 0.835775 3.293038 -28.475171 0.031486 0.659084 -5.469937 0.000004 0.000002 0.000004 -7.491847 -9.576476 12.537864 5.175817 38.090459 -7.418081 -0.269082 3.080597 1.866423 0.000004 -0.000000 -0.000000 0.181970 1.582211 -14.432852 0.238061 1.798368 -15.080344 0.006489 0.299443 -2.482023 -0.000002 -0.000001 0.000001 1.165586 4.019842 -25.125259 0.702241 3.034325 -26.055763 0.064205 0.940028 -7.814399 0.000000 0.000000 -0.000001 1.321629 4.068508 -34.223441 0.441372 -1.636948 -20.988931 0.006487 0.299425 -2.482022 -0.000001 -0.000001 -0.000001 0.325699 -0.325117 1.713194 -4.266919 38.375213 49.609208 0.000061 76.123128 -0.000080 -4.268785 2.331908 -20.175790 0.220946 -2.009777 24.784702 0.908682 -3.441765 29.571273 0.090306 -1.079902 8.906190 0.000000 0.000001 -0.000001 7.113451 -17.617804 -0.529198 3.747720 -11.429408 -0.806487 0.168421 -3.221944 -4.716654 0.000003 -0.000001 -0.000002 -2.164795 2.765768 26.648649 0.391586 -2.304700 19.283837 0.008752 -0.349449 2.868613 0.000003 -0.000002 -0.000002 1.942666 -5.628320 25.503952 0.526859 -2.659609 22.406127 0.025009 -1.119273 9.139064 -0.000002 -0.000000 0.000000 0.062129 -2.057164 31.390043 0.603674 -2.838576 24.007794 0.126973 -1.325382 10.943966 -0.000001 -0.000000 0.000001 -38.125433 6.180467 11.321039 43.017768 5.923748 0.217198 -19.368176 4.106062 -2.322585 -8.064397 0.000000 0.000001 -0.000000 -0.000001 -0.000000 -65.798791 -6.549018 5.946415 56.571318 5.321376 -1.821261 8.221111 8.456409 9.967811 2.080498 -0.000003 -0.000001 -0.000002 -0.000001 0.000001 
34.053741 190.556580 93.182312 30.462466 -58.293609 19.471073 21.236769 -7.097688 4.011266 8.980305 -3.753073 1.897537 8.977761 -3.677689 2.099671 8.462224 2.618961 -1.320223 3.141500 13.560170 -4.379206 -0.000000 0.000001 0.000001 -0.000000 0.000001 0.000001 -0.000000 0.000001 0.000001 0.497232 -15.748415 -10.516018 -7.674504 -38.065556 -33.726269 -0.000021 -39.556638 -0.000014 -22.761375 13.704920 15.164577 0.154457 1.693333 -21.268932 0.838995 3.298913 -28.530899 0.030859 0.652539 -5.415507 -0.000001 0.000002 0.000003 -7.508109 -9.609049 12.499717 5.174287 38.087665 -7.417246 -0.276261 3.056321 1.871302 0.000002 -0.000000 -0.000001 0.161034 1.499835 -14.372480 0.238210 1.798910 -15.084980 0.006490 0.299438 -2.482028 -0.000003 -0.000001 -0.000004 1.160373 4.006972 -25.163076 0.702290 3.034406 -26.056636 0.063878 0.937673 -7.794503 0.000004 -0.000001 -0.000001 1.320429 4.066931 -34.194277 0.441340 -1.637082 -20.987827 0.006476 0.299431 -2.482038 -0.000001 -0.000004 -0.000003 0.355159 -0.314404 2.578804 -2.155720 36.494910 50.290014 -0.000009 74.050671 -0.000016 -4.716758 1.949145 -19.366146 0.206448 -1.980645 24.840394 0.909416 -3.443047 29.583496 0.090258 -1.079530 8.903076 0.000000 0.000002 -0.000002 7.068211 -17.566031 -0.565837 3.747717 -11.429405 -0.806486 0.144472 -3.144890 -4.721465 0.000004 0.000001 0.000002 -2.175527 2.777202 26.690122 0.392436 -2.307072 19.304451 0.008791 -0.350301 2.875702 -0.000001 0.000002 0.000001 1.934361 -5.608108 25.530475 0.527529 -2.661257 22.420897 0.025078 -1.119704 9.142492 -0.000001 -0.000000 0.000001 0.091987 -2.113899 31.515746 0.604018 -2.839329 24.014561 0.126853 -1.324769 10.938901 0.000000 0.000001 -0.000001 -36.460431 6.148984 9.524728 44.719885 3.582014 0.765875 -21.458873 3.830286 -2.375848 -7.531635 -0.000021 -0.000002 -0.000000 -0.000002 -0.000000 -61.160184 -3.206353 5.492374 48.540478 4.977987 -3.986019 9.004099 11.893431 9.102696 -0.119332 -0.000002 -0.000002 -0.000000 0.000000 -0.000001 
30.151037 188.331299 93.195145 24.494310 -53.872294 15.350345 20.561328 -7.073716 4.577646 8.518720 -3.823213 2.037912 8.504791 -3.761075 2.256459 8.327930 2.230095 -1.069951 2.979212 11.509314 -3.630000 0.000001 0.000000 0.000000 0.000001 0.000000 0.000000 0.000001 0.000000 0.000000 0.487606 -15.501618 -10.624001 -4.250256 -39.469064 -32.637492 0.000011 -41.012147 0.000013 -22.606389 15.315364 14.177697 0.153086 1.695255 -21.398399 0.842699 3.305745 -28.595613 0.030312 0.646702 -5.366803 0.000001 -0.000000 0.000003 -7.510969 -9.629054 12.511968 5.181843 38.101264 -7.421291 -0.275527 3.058798 1.870806 0.000002 0.000000 -0.000001 0.152910 1.468214 -14.381942 0.238218 1.798911 -15.084965 0.006489 0.299427 -2.482007 0.000000 0.000000 -0.000000 1.165255 4.014106 -25.229798 0.702725 3.035301 -26.064948 0.063743 0.936600 -7.785581 -0.000002 -0.000001 -0.000003 1.325132 4.073838 -34.195277 0.441016 -1.637931 -20.979964 0.006490 0.299434 -2.482037 0.000001 -0.000000 0.000002 0.359313 -0.431027 2.909218 -0.980781 33.982493 52.021565 0.000065 71.706481 -0.000049 -4.785387 1.695608 -18.039795 0.173341 -1.913912 24.950381 0.913169 -3.449645 29.645978 0.090299 -1.079774 8.905134 0.000001 0.000000 0.000001 7.024937 -17.525798 -0.617166 3.747716 -11.429408 -0.806485 0.133680 -3.110129 -4.723586 0.000001 0.000001 0.000001 -2.179122 2.748782 26.827842 0.394126 -2.311892 19.346470 0.008865 -0.351590 2.886296 0.000002 -0.000004 -0.000003 1.909491 -5.547317 25.615866 0.529640 -2.666328 22.465971 0.025031 -1.119425 9.140257 -0.000003 0.000003 -0.000001 0.144924 -2.214859 31.765355 0.604519 -2.840472 24.024806 0.127079 -1.325897 10.948283 0.000002 -0.000002 -0.000000 -35.126399 5.766106 7.753744 47.014695 1.575022 1.680396 -23.524457 3.062414 -2.915903 -7.056138 -0.000001 0.000002 -0.000000 -0.000001 0.000000 -56.867281 -0.862274 4.278767 42.722891 5.817975 -6.201434 10.306848 15.596858 9.369341 -4.740041 0.004990 -0.642465 0.000000 -0.000001 0.000001 
26.011282 186.286774 92.865303 19.840113 -49.023929 12.692455 19.862696 -6.808113 4.863741 8.120331 -3.739016 2.040616 8.093232 -3.707422 2.262421 8.173926 1.873655 -0.760239 2.317671 9.631012 -2.566846 -0.000000 -0.000001 -0.000000 -0.000000 -0.000001 -0.000000 -0.000000 -0.000001 -0.000000 0.500208 -15.129192 -10.532391 -1.893406 -41.162750 -32.138857 0.000004 -42.628939 -0.000008 -22.118251 16.400814 13.054108 0.162892 1.723216 -21.467228 0.844738 3.309450 -28.630522 0.030094 0.644417 -5.347829 0.000002 -0.000002 0.000000 -7.515015 -9.650186 12.518880 5.186893 38.110338 -7.423967 -0.270984 3.074210 1.867697 0.000000 -0.000001 0.000001 0.155919 1.480725 -14.423435 0.238169 1.798791 -15.083967 0.006483 0.299438 -2.482027 -0.000000 0.000000 -0.000001 1.171912 4.025316 -25.288880 0.703103 3.036082 -26.072014 0.063697 0.936309 -7.783305 0.000001 -0.000001 0.000002 1.329676 4.080402 -34.208842 0.440324 -1.639683 -20.964571 0.006480 0.299427 -2.482033 0.000000 0.000001 0.000004 0.368076 -0.506272 3.287859 -0.159575 31.290060 53.602618 0.000043 69.325150 -0.000053 -5.591713 1.929851 -16.948949 0.120779 -1.802195 24.986681 0.916566 -3.455587 29.702341 0.090476 -1.080988 8.915224 0.000004 -0.000000 0.000001 6.936224 -17.470859 -0.771302 3.747720 -11.429408 -0.806484 0.101775 -3.007100 -4.730063 0.000001 -0.000000 0.000001 -2.184229 2.736700 26.915095 0.395745 -2.316533 19.386881 0.008972 -0.353666 2.903302 0.000001 -0.000001 0.000002 1.863704 -5.451013 25.636007 0.531772 -2.671488 22.511906 0.025159 -1.120120 9.146039 0.000000 -0.000002 -0.000003 0.199014 -2.305989 31.827442 0.604512 -2.840445 24.024589 0.127646 -1.328873 10.973146 -0.000002 -0.000002 -0.000000 -33.752435 5.381263 6.330620 48.696547 -0.102147 2.417169 -25.302909 1.717550 -3.713526 -6.434209 0.000019 -0.000000 0.000001 -0.000002 0.000000 -53.266364 0.341186 2.983732 41.076980 8.468188 -8.138066 6.021116 16.652025 6.278021 -9.647479 0.000004 -0.000004 -0.000000 0.000001 0.000000 
21.835049 184.473602 92.387833 16.155300 -43.923581 10.953448 19.219418 -6.414098 5.040361 7.833295 -3.596872 2.011779 7.799072 -3.588514 2.224753 7.980195 1.607100 -0.331296 1.408935 8.283669 -1.344397 -0.000000 0.000001 -0.000000 -0.000000 0.000001 -0.000000 -0.000000 0.000001 -0.000000 0.565904 -14.503020 -9.908024 -0.770570 -42.620097 -32.445362 -0.000015 -44.434397 -0.000015 -21.286442 17.050532 11.355485 0.168134 1.736508 -21.465428 0.843709 3.307571 -28.612919 0.030187 0.645351 -5.355642 0.000001 -0.000001 0.000002 -7.539404 -9.705766 12.488420 5.201014 38.135726 -7.431513 -0.278936 3.047195 1.873165 0.000000 -0.000001 0.000000 0.156213 1.482043 -14.435724 0.239798 1.804783 -15.135551 0.006483 0.299437 -2.482012 -0.000000 -0.000001 -0.000004 1.176748 4.034037 -25.318874 0.702702 3.035255 -26.064649 0.063640 0.935928 -7.779997 -0.000000 -0.000001 -0.000002 1.312154 4.054792 -34.201018 0.438999 -1.643182 -20.933500 0.006482 0.299442 -2.482049 -0.000001 0.000000 0.000003 0.382476 -0.542027 3.753621 0.203059 29.144988 54.855209 0.000040 66.500136 -0.000050 -6.483721 2.324142 -16.041027 0.084358 -1.717997 24.885863 0.916127 -3.454833 29.695019 0.090756 -1.082796 8.930336 0.000002 0.000000 0.000001 6.831996 -17.396724 -0.938616 3.747715 -11.429408 -0.806485 0.019332 -2.740117 -4.746914 0.000000 0.000001 0.000004 -2.201219 2.792181 26.835847 0.396191 -2.317741 19.397382 0.009076 -0.356015 2.922654 -0.000002 -0.000001 -0.000002 1.817766 -5.364999 25.554536 0.531964 -2.671942 22.515925 0.025604 -1.122951 9.169310 -0.000002 0.000001 -0.000002 0.261735 -2.405630 31.788489 0.602357 -2.835623 23.981228 0.128408 -1.332796 11.005984 0.000000 0.000001 -0.000001 -32.802499 4.771850 5.212984 50.369749 -1.402516 3.148216 -26.252513 0.132654 -4.810353 -6.429733 -0.000005 0.000001 -0.000000 -0.000002 0.000000 -52.370858 1.084738 0.409261 44.955824 8.202793 -8.718693 -1.452269 16.503498 7.759405 -8.325646 -0.000007 0.000002 0.000000 -0.000001 0.000000 
